<svg width="200" height="128" viewBox="0 0 200 128" fill="none" xmlns="http://www.w3.org/2000/svg">
<g filter="url(#filter0_d_2324_7)">
<path d="M8.39537 93.3101L5.51699 22.3101C5.05669 10.956 14.1371 1.5 25.5006 1.5H173.673C184.719 1.5 193.673 10.4543 193.673 21.5V92.5C193.673 103.546 184.719 112.5 173.673 112.5H28.379C17.6484 112.5 8.83004 104.032 8.39537 93.3101Z" fill="#C97B5C"/>
<path d="M8.39537 93.3101L5.51699 22.3101C5.05669 10.956 14.1371 1.5 25.5006 1.5H173.673C184.719 1.5 193.673 10.4543 193.673 21.5V92.5C193.673 103.546 184.719 112.5 173.673 112.5H28.379C17.6484 112.5 8.83004 104.032 8.39537 93.3101Z" stroke="black" stroke-width="3"/>
</g>
<defs>
<filter id="filter0_d_2324_7" x="0" y="0" width="199.173" height="128" filterUnits="userSpaceOnUse" color-interpolation-filters="sRGB">
<feFlood flood-opacity="0" result="BackgroundImageFix"/>
<feColorMatrix in="SourceAlpha" type="matrix" values="0 0 0 0 0 0 0 0 0 0 0 0 0 0 0 0 0 0 127 0" result="hardAlpha"/>
<feOffset dy="10"/>
<feGaussianBlur stdDeviation="2"/>
<feComposite in2="hardAlpha" operator="out"/>
<feColorMatrix type="matrix" values="0 0 0 0 0 0 0 0 0 0 0 0 0 0 0 0 0 0 0.25 0"/>
<feBlend mode="normal" in2="BackgroundImageFix" result="effect1_dropShadow_2324_7"/>
<feBlend mode="normal" in="SourceGraphic" in2="effect1_dropShadow_2324_7" result="shape"/>
</filter>
</defs>
</svg>
