<svg width="196" height="197" viewBox="0 0 196 197" fill="none" xmlns="http://www.w3.org/2000/svg">
<g filter="url(#filter0_d_2324_11)">
<path d="M118.858 3.50584L12.2858 67.6124C5.81217 71.5065 3.59562 79.8344 7.27695 86.4313L56.2001 174.102C60.0264 180.958 68.7425 183.328 75.5137 179.352L183.287 116.076C189.881 112.205 192.149 103.758 188.38 97.104L138.256 8.60318C134.375 1.75025 125.607 -0.553791 118.858 3.50584Z" fill="#7A9B76"/>
<path d="M118.858 3.50584L12.2858 67.6124C5.81217 71.5065 3.59562 79.8344 7.27695 86.4313L56.2001 174.102C60.0264 180.958 68.7425 183.328 75.5137 179.352L183.287 116.076C189.881 112.205 192.149 103.758 188.38 97.104L138.256 8.60318C134.375 1.75025 125.607 -0.553791 118.858 3.50584Z" stroke="black" stroke-width="3"/>
</g>
<defs>
<filter id="filter0_d_2324_11" x="0" y="0" width="195.701" height="196.782" filterUnits="userSpaceOnUse" color-interpolation-filters="sRGB">
<feFlood flood-opacity="0" result="BackgroundImageFix"/>
<feColorMatrix in="SourceAlpha" type="matrix" values="0 0 0 0 0 0 0 0 0 0 0 0 0 0 0 0 0 0 127 0" result="hardAlpha"/>
<feOffset dy="10"/>
<feGaussianBlur stdDeviation="2"/>
<feComposite in2="hardAlpha" operator="out"/>
<feColorMatrix type="matrix" values="0 0 0 0 0 0 0 0 0 0 0 0 0 0 0 0 0 0 0.25 0"/>
<feBlend mode="normal" in2="BackgroundImageFix" result="effect1_dropShadow_2324_11"/>
<feBlend mode="normal" in="SourceGraphic" in2="effect1_dropShadow_2324_11" result="shape"/>
</filter>
</defs>
</svg>
